<!DOCTYPE svg PUBLIC "-//W3C//DTD SVG 20010904//EN" "http://www.w3.org/TR/2001/REC-SVG-20010904/DTD/svg10.dtd">
<svg version="1.0" xmlns="http://www.w3.org/2000/svg" width="1068px" height="298px" viewBox="0 0 10680 2980"
     preserveAspectRatio="xMidYMid meet">
    <g id="layer101" fill="#99cc22" stroke="none">
        <path
            d="M632 2865 c-113 -35 -175 -114 -238 -305 -28 -84 -28 -88 -32 -385 l-4 -300 64 -51 c34 -28 91 -61 126 -75 34 -13 62 -27 62 -31 0 -14 -16 -9 -84 27 -37 19 -71 33 -76 30 -4 -3 -13 2 -20 10 -7 8 -9 15 -4 15 5 0 -6 10 -23 21 -18 12 -33 26 -34 32 0 7 -4 4 -8 -6 -6 -17 -9 -16 -35 10 -41 40 -83 108 -102 165 -33 102 -52 34 -53 -198 -1 -196 14 -237 139 -380 l49 -55 4 -452 c3 -385 6 -462 21 -517 45 -173 88 -240 178 -281 52 -24 59 -24 391 -27 l337 -3 0 150 0 149 -212 4 c-222 3 -236 6 -285 51 -13 11 -31 43 -42 71 -17 45 -20 93 -26 394 l-8 344 49 -7 c147 -20 304 -83 398 -159 37 -31 62 -44 68 -38 12 12 -6 178 -26 246 -16 52 -75 156 -89 156 -5 0 -27 16 -50 35 -38 32 -159 86 -295 130 l-53 17 6 381 c7 419 7 417 72 495 37 45 74 51 306 52 l187 0 0 150 0 150 -307 -1 c-229 0 -319 -4 -351 -14z m18 -1155 c12 -8 11 -10 -7 -10 -13 0 -23 5 -23 10 0 13 11 13 30 0z"/>
        <path
            d="M1533 1743 c3 -1112 4 -1140 24 -1228 53 -227 127 -323 293 -376 94 -30 288 -37 401 -15 260 53 359 195 388 557 7 83 11 524 11 1166 l0 1033 -190 0 -190 0 0 -635 0 -635 -180 0 -180 0 0 635 0 635 -190 0 -191 0 4 -1137z m734 -805 c-4 -278 -8 -364 -20 -407 -27 -93 -74 -125 -173 -119 -54 3 -68 9 -94 33 -58 56 -63 92 -68 488 l-4 357 182 0 182 0 -5 -352z"/>
        <path
            d="M3259 2869 c-111 -16 -211 -63 -262 -123 -32 -37 -67 -114 -84 -183 -12 -51 -16 -120 -17 -278 l-1 -210 186 -3 187 -2 4 197 c5 215 14 262 59 295 37 28 101 34 152 14 86 -33 97 -88 97 -500 0 -412 -9 -450 -118 -509 -42 -23 -71 -30 -159 -37 -160 -13 -197 -20 -239 -44 -71 -39 -122 -141 -145 -286 -17 -114 -7 -638 15 -715 70 -252 245 -375 534 -375 223 0 358 67 428 213 43 90 56 174 58 375 l1 167 -187 3 -186 2 -4 -187 c-3 -168 -5 -192 -24 -223 -24 -42 -56 -60 -107 -60 -56 0 -102 25 -124 68 -16 33 -18 67 -18 349 l0 311 25 27 c32 35 47 40 225 81 173 39 298 94 340 148 55 72 58 92 63 471 5 416 -6 590 -43 703 -59 178 -172 273 -363 308 -84 15 -206 16 -293 3z"/>
        <path
            d="M4540 1645 l0 -1235 -175 0 -175 0 0 -150 0 -150 555 0 555 0 0 150 0 150 -180 0 -180 0 0 1235 0 1235 -200 0 -200 0 0 -1235z"/>
        <path
            d="M5808 2865 c-53 -20 -94 -52 -136 -110 -58 -76 -89 -135 -117 -218 l-25 -76 0 -973 c0 -808 3 -988 15 -1063 30 -186 61 -243 157 -286 51 -23 62 -24 346 -27 326 -4 366 2 435 58 49 42 80 96 114 205 l28 90 3 984 c2 948 2 987 -17 1062 -47 186 -116 296 -213 340 -51 23 -64 24 -303 26 -194 2 -258 -1 -287 -12z m391 -308 c14 -7 35 -30 46 -52 19 -39 20 -63 23 -950 2 -809 1 -918 -13 -983 -27 -121 -93 -172 -201 -156 -73 11 -105 39 -134 119 l-25 70 -3 850 c-2 572 1 873 8 919 19 125 54 177 133 197 40 10 132 2 166 -14z"/>
        <path
            d="M6890 1773 c0 -1166 1 -1206 46 -1353 68 -228 240 -323 555 -307 242 11 382 96 448 270 57 153 55 103 58 1350 l4 1147 -191 0 -190 0 0 -1127 c0 -1196 -1 -1225 -47 -1288 -54 -74 -209 -73 -258 2 -40 60 -40 58 -45 1248 l-5 1160 -187 3 -188 2 0 -1107z"/>
        <path
            d="M8482 2861 c-103 -36 -181 -145 -234 -328 l-23 -78 0 -975 0 -975 23 -90 c31 -125 74 -209 125 -246 75 -55 109 -59 459 -59 l318 0 0 149 0 149 -212 4 c-233 3 -256 9 -296 65 -48 70 -52 104 -52 470 l0 343 190 0 190 0 0 160 0 160 -190 -7 -191 -6 3 419 3 419 34 53 c53 84 63 86 309 90 l212 4 0 149 0 149 -307 0 c-273 -1 -314 -3 -361 -19z"/>
        <path
            d="M9390 1494 l0 -1385 348 3 c337 3 349 4 416 28 124 43 223 138 294 279 l37 75 3 269 c2 225 0 278 -13 325 -47 160 -173 324 -269 348 -26 6 -26 6 13 26 73 36 141 118 211 257 61 122 60 110 60 659 l0 502 -180 0 -180 0 0 -508 c0 -567 0 -568 -67 -657 -57 -75 -123 -105 -230 -105 l-83 0 0 635 0 635 -180 0 -180 0 0 -1386z m582 -234 c59 -30 95 -66 126 -125 26 -49 27 -55 30 -257 4 -215 -3 -266 -45 -356 -28 -59 -110 -92 -270 -106 l-63 -6 0 442 0 441 89 -5 c66 -4 102 -11 133 -28z"/>
    </g>
    <g id="layer102" fill="#d2ff7f" stroke="none">
        <path
            d="M179 2023 c-2 -21 -4 -110 -4 -198 0 -205 13 -240 145 -381 l49 -53 3 -468 c4 -449 5 -471 26 -541 44 -144 86 -202 177 -244 48 -22 60 -23 383 -26 l332 -4 0 151 0 151 -208 0 c-196 0 -210 1 -252 23 -37 18 -51 33 -75 82 l-30 60 -3 351 -3 351 48 -7 c152 -25 330 -96 411 -166 22 -19 44 -34 49 -34 13 0 -8 199 -27 258 -1 4 -2 10 -1 15 0 4 -4 7 -10 7 -5 0 -7 5 -4 10 3 6 3 10 -2 10 -4 0 -19 20 -32 45 -13 25 -27 45 -31 45 -4 0 -22 13 -39 29 -18 17 -34 30 -37 30 -2 1 -25 12 -52 25 -38 19 -312 121 -384 143 -10 3 -18 10 -18 15 0 5 -4 7 -10 3 -10 -6 -133 52 -138 66 -2 5 -8 7 -12 4 -5 -3 -11 -1 -14 4 -4 5 -1 13 5 17 8 5 9 3 4 -6 -5 -9 -4 -11 4 -6 6 4 9 12 6 17 -8 13 -33 11 -37 -2 -2 -6 -27 10 -55 36 -49 43 -115 148 -129 203 -9 35 -30 26 -35 -15z"/>
        <path
            d="M653 1703 c-7 -3 -13 -8 -13 -12 0 -10 67 -8 77 3 4 4 -1 7 -12 5 -11 -2 -24 -1 -30 2 -5 4 -16 4 -22 2z"/>
    </g>

</svg>
