<svg id="svg" version="1.1" xmlns="http://www.w3.org/2000/svg" width="400"
     height="857.1428571428571" viewBox="0, 0, 400,857.1428571428571">
    <g id="svgg">
        <path id="path0"
              d="M185.200 22.000 C 185.200 22.587,184.933 22.800,184.200 22.800 C 183.578 22.800,183.200 23.027,183.200 23.400 C 183.200 23.916,181.933 24.000,174.200 24.000 C 165.900 24.000,165.199 24.054,165.187 24.700 C 165.155 26.460,164.324 26.800,160.056 26.800 L 156.000 26.800 156.000 28.200 L 156.000 29.600 153.200 29.600 L 150.400 29.600 150.400 31.000 L 150.400 32.400 147.600 32.400 C 145.052 32.400,144.800 32.473,144.800 33.213 C 144.800 33.659,144.531 34.128,144.202 34.254 C 143.874 34.381,143.704 34.645,143.826 34.842 C 143.948 35.039,142.957 35.200,141.624 35.200 L 139.200 35.200 139.200 36.600 C 139.200 37.933,139.133 38.000,137.800 38.000 C 136.725 38.000,136.400 38.165,136.400 38.711 C 136.400 39.441,135.099 40.800,134.400 40.800 C 133.701 40.800,132.400 42.159,132.400 42.889 C 132.400 43.333,132.100 43.600,131.600 43.600 C 131.160 43.600,130.800 43.780,130.800 44.000 C 130.800 44.220,130.530 44.400,130.200 44.400 C 129.860 44.400,129.600 44.759,129.600 45.229 C 129.600 46.290,128.690 47.200,127.629 47.200 C 127.057 47.200,126.800 47.457,126.800 48.029 C 126.800 49.090,125.890 50.000,124.829 50.000 C 124.148 50.000,124.000 50.251,124.000 51.400 C 124.000 52.733,123.933 52.800,122.600 52.800 L 121.200 52.800 121.200 55.029 C 121.200 57.431,120.634 58.400,119.229 58.400 C 118.501 58.400,118.400 58.644,118.400 60.400 C 118.400 61.500,118.220 62.400,118.000 62.400 C 117.780 62.400,117.600 62.760,117.600 63.200 C 117.600 63.787,117.333 64.000,116.600 64.000 C 115.649 64.000,115.600 64.113,115.600 66.312 C 115.600 68.165,115.441 68.738,114.800 69.200 C 114.360 69.517,114.000 70.007,114.000 70.288 C 114.000 70.570,113.730 70.800,113.400 70.800 C 112.944 70.800,112.797 71.306,112.787 72.900 C 112.773 75.245,112.136 76.400,110.856 76.400 C 110.053 76.400,110.000 76.597,110.000 79.600 C 110.000 81.467,109.833 82.800,109.600 82.800 C 109.380 82.800,109.200 83.250,109.200 83.800 C 109.200 84.600,109.000 84.800,108.200 84.800 C 107.281 84.800,107.200 84.947,107.200 86.600 C 107.200 87.590,107.020 88.400,106.800 88.400 C 106.578 88.400,106.400 89.467,106.400 90.800 C 106.400 92.707,106.272 93.200,105.776 93.200 C 105.433 93.200,105.264 93.380,105.400 93.600 C 105.540 93.827,105.204 94.000,104.624 94.000 L 103.600 94.000 103.600 99.600 L 103.600 105.200 102.200 105.200 L 100.800 105.200 100.800 110.800 L 100.800 116.400 99.800 116.400 C 99.178 116.400,98.800 116.627,98.800 117.000 C 98.800 117.330,98.620 117.600,98.400 117.600 C 98.145 117.600,98.000 120.800,98.000 126.400 C 98.000 133.956,97.915 135.200,97.400 135.200 C 97.027 135.200,96.800 135.578,96.800 136.200 C 96.800 136.933,96.587 137.200,96.000 137.200 C 95.202 137.200,95.200 137.467,95.200 266.586 L 95.200 395.972 94.013 397.186 C 93.080 398.141,92.483 398.400,91.213 398.400 C 89.759 398.400,89.600 398.499,89.600 399.400 C 89.600 400.022,89.373 400.400,89.000 400.400 C 88.670 400.400,88.400 400.580,88.400 400.800 C 88.400 401.020,88.040 401.200,87.600 401.200 C 87.013 401.200,86.800 401.467,86.800 402.200 C 86.800 402.822,86.573 403.200,86.200 403.200 C 85.797 403.200,85.600 403.603,85.600 404.429 C 85.600 405.852,84.812 406.800,83.629 406.800 C 83.057 406.800,82.800 407.057,82.800 407.629 C 82.800 408.690,81.890 409.600,80.829 409.600 C 80.148 409.600,80.000 409.851,80.000 411.000 C 80.000 412.333,79.933 412.400,78.600 412.400 C 77.267 412.400,77.200 412.467,77.200 413.800 C 77.200 415.133,77.133 415.200,75.800 415.200 C 74.467 415.200,74.400 415.267,74.400 416.600 C 74.400 417.733,74.248 418.000,73.600 418.000 C 73.156 418.000,72.800 418.267,72.800 418.600 C 72.800 418.930,72.530 419.200,72.200 419.200 C 71.867 419.200,71.600 419.556,71.600 420.000 C 71.600 420.440,71.420 420.800,71.200 420.800 C 70.980 420.800,70.800 421.070,70.800 421.400 C 70.800 421.773,70.422 422.000,69.800 422.000 C 69.067 422.000,68.800 422.213,68.800 422.800 C 68.800 423.240,68.620 423.600,68.400 423.600 C 68.180 423.600,68.000 423.870,68.000 424.200 C 68.000 424.573,67.622 424.800,67.000 424.800 C 66.267 424.800,66.000 425.013,66.000 425.600 C 66.000 426.040,65.820 426.400,65.600 426.400 C 65.380 426.400,65.200 426.670,65.200 427.000 C 65.200 427.373,64.822 427.600,64.200 427.600 C 63.281 427.600,63.200 427.747,63.200 429.400 C 63.200 430.390,63.020 431.200,62.800 431.200 C 62.580 431.200,62.400 431.650,62.400 432.200 C 62.400 433.076,62.227 433.200,61.000 433.200 C 59.667 433.200,59.600 433.267,59.600 434.600 C 59.600 435.933,59.533 436.000,58.200 436.000 L 56.800 436.000 56.800 438.800 L 56.800 441.600 55.400 441.600 C 54.067 441.600,54.000 441.667,54.000 443.000 C 54.000 443.978,53.819 444.400,53.400 444.400 C 53.070 444.400,52.800 444.580,52.800 444.800 C 52.800 445.020,52.440 445.200,52.000 445.200 C 51.413 445.200,51.200 445.467,51.200 446.200 C 51.200 446.822,50.973 447.200,50.600 447.200 C 50.270 447.200,50.000 447.380,50.000 447.600 C 50.000 447.820,49.640 448.000,49.200 448.000 C 48.476 448.000,48.400 448.267,48.400 450.800 L 48.400 453.600 47.000 453.600 L 45.600 453.600 45.600 457.400 C 45.600 460.511,45.491 461.200,45.000 461.200 C 44.670 461.200,44.400 461.380,44.400 461.600 C 44.400 461.820,44.040 462.000,43.600 462.000 C 42.876 462.000,42.800 462.267,42.800 464.800 C 42.800 467.022,42.676 467.600,42.200 467.600 C 41.870 467.600,41.600 467.870,41.600 468.200 C 41.600 468.533,41.244 468.800,40.800 468.800 C 40.036 468.800,40.000 469.067,40.000 474.800 C 40.000 479.867,39.907 480.800,39.400 480.800 C 38.933 480.800,38.800 481.333,38.800 483.200 C 38.800 485.333,38.711 485.600,38.000 485.600 C 37.560 485.600,37.200 485.780,37.200 486.000 C 37.200 486.220,36.930 486.400,36.600 486.400 C 36.071 486.400,36.000 491.089,36.000 526.200 L 36.000 566.000 37.400 566.000 C 38.627 566.000,38.800 566.124,38.800 567.000 C 38.800 567.622,39.027 568.000,39.400 568.000 C 39.909 568.000,40.000 568.990,40.000 574.512 C 40.000 580.565,40.056 581.064,40.800 581.600 C 41.926 582.411,41.926 584.800,40.800 584.800 C 40.088 584.800,40.000 585.067,40.000 587.217 L 40.000 589.634 43.100 589.517 L 46.200 589.400 46.316 586.100 C 46.380 584.285,46.605 582.800,46.816 582.800 C 47.027 582.800,47.200 582.440,47.200 582.000 C 47.200 581.413,47.467 581.200,48.200 581.200 C 49.171 581.200,49.200 581.120,49.200 578.400 C 49.200 576.800,49.371 575.600,49.600 575.600 C 49.820 575.600,50.000 574.970,50.000 574.200 C 50.000 572.973,50.124 572.800,51.000 572.800 C 51.622 572.800,52.000 572.573,52.000 572.200 C 52.000 571.870,52.180 571.600,52.400 571.600 C 52.620 571.600,52.800 571.150,52.800 570.600 C 52.800 569.978,53.027 569.600,53.400 569.600 C 53.730 569.600,54.000 569.420,54.000 569.200 C 54.000 568.980,54.360 568.800,54.800 568.800 C 55.524 568.800,55.600 568.533,55.600 566.000 L 55.600 563.200 57.000 563.200 L 58.400 563.200 58.400 560.400 L 58.400 557.600 59.800 557.600 L 61.200 557.600 61.200 554.800 L 61.200 552.000 62.600 552.000 L 64.000 552.000 64.000 549.200 C 64.000 546.634,64.069 546.400,64.829 546.400 C 66.234 546.400,66.800 545.431,66.800 543.029 C 66.800 541.041,66.890 540.800,67.629 540.800 C 68.690 540.800,69.600 539.890,69.600 538.829 C 69.600 538.359,69.860 538.000,70.200 538.000 C 70.530 538.000,70.800 537.820,70.800 537.600 C 70.800 537.380,71.160 537.200,71.600 537.200 C 72.044 537.200,72.400 536.933,72.400 536.600 C 72.400 536.270,72.670 536.000,73.000 536.000 C 73.333 536.000,73.600 535.644,73.600 535.200 C 73.600 534.552,73.867 534.400,75.000 534.400 C 76.333 534.400,76.400 534.333,76.400 533.000 C 76.400 531.667,76.467 531.600,77.800 531.600 C 79.167 531.600,79.200 531.562,79.200 530.000 C 79.200 528.438,79.233 528.400,80.600 528.400 C 81.933 528.400,82.000 528.333,82.000 527.000 C 82.000 525.667,82.067 525.600,83.400 525.600 C 84.733 525.600,84.800 525.533,84.800 524.200 C 84.800 523.051,84.948 522.800,85.629 522.800 C 86.623 522.800,87.600 521.908,87.600 521.000 C 87.600 520.155,88.555 519.200,89.400 519.200 C 90.308 519.200,91.200 518.223,91.200 517.229 C 91.200 516.490,91.441 516.400,93.429 516.400 C 95.831 516.400,96.800 515.834,96.800 514.429 C 96.800 513.748,97.051 513.600,98.200 513.600 C 99.533 513.600,99.600 513.533,99.600 512.200 L 99.600 510.800 102.400 510.800 L 105.200 510.800 105.200 509.400 C 105.200 508.067,105.267 508.000,106.600 508.000 C 107.933 508.000,108.000 507.933,108.000 506.600 L 108.000 505.200 111.000 505.200 L 114.000 505.200 114.000 503.800 L 114.000 502.400 116.048 502.400 C 117.953 502.400,118.216 502.274,119.821 500.600 C 121.460 498.889,121.655 498.800,123.773 498.800 C 125.759 498.800,126.000 498.710,126.000 497.971 C 126.000 496.566,126.969 496.000,129.371 496.000 C 131.359 496.000,131.600 495.910,131.600 495.171 C 131.600 493.766,132.569 493.200,134.971 493.200 C 136.959 493.200,137.200 493.110,137.200 492.371 C 137.200 490.899,138.154 490.400,140.971 490.400 C 143.509 490.400,143.600 490.365,143.600 489.400 C 143.600 488.778,143.827 488.400,144.200 488.400 C 144.530 488.400,144.800 488.130,144.800 487.800 C 144.800 487.333,145.333 487.200,147.200 487.200 C 149.333 487.200,149.600 487.111,149.600 486.400 C 149.600 485.867,149.867 485.600,150.400 485.600 C 150.844 485.600,151.200 485.333,151.200 485.000 C 151.200 484.514,151.844 484.400,154.600 484.400 C 157.733 484.400,158.000 484.337,158.000 483.600 C 158.000 483.160,158.180 482.800,158.400 482.800 C 158.620 482.800,158.800 482.530,158.800 482.200 C 158.800 481.711,159.470 481.600,162.429 481.600 C 166.293 481.600,167.200 481.225,167.200 479.629 C 167.200 478.913,167.446 478.800,169.000 478.800 C 169.990 478.800,170.800 478.620,170.800 478.400 C 170.800 478.180,171.250 478.000,171.800 478.000 C 172.600 478.000,172.800 477.800,172.800 477.000 C 172.800 476.081,172.947 476.000,174.600 476.000 C 175.590 476.000,176.400 475.820,176.400 475.600 C 176.400 475.378,177.467 475.200,178.800 475.200 C 180.133 475.200,181.200 475.022,181.200 474.800 C 181.200 474.580,181.470 474.400,181.800 474.400 C 182.130 474.400,182.400 474.207,182.400 473.971 C 182.400 472.793,183.594 472.400,187.171 472.400 C 190.575 472.400,190.800 472.349,190.800 471.571 C 190.800 470.166,191.769 469.600,194.171 469.600 C 196.159 469.600,196.400 469.510,196.400 468.771 C 196.400 467.175,197.307 466.800,201.171 466.800 C 203.167 466.800,204.800 466.665,204.800 466.500 C 204.803 464.872,206.737 464.000,210.347 464.000 L 214.000 464.000 214.000 462.600 L 214.000 461.200 218.200 461.200 L 222.400 461.200 222.400 459.800 L 222.400 458.400 226.600 458.400 L 230.800 458.400 230.800 457.400 C 230.800 456.778,231.027 456.400,231.400 456.400 C 231.730 456.400,232.000 456.220,232.000 456.000 C 232.000 455.780,232.810 455.600,233.800 455.600 C 234.790 455.600,235.600 455.420,235.600 455.200 C 235.600 454.978,236.667 454.800,238.000 454.800 C 240.293 454.800,240.400 454.756,240.400 453.800 C 240.400 453.067,240.613 452.800,241.200 452.800 C 241.640 452.800,242.000 452.620,242.000 452.400 C 242.000 452.165,243.400 452.000,245.400 452.000 C 248.572 452.000,248.800 451.945,248.800 451.171 C 248.800 449.766,249.769 449.200,252.171 449.200 C 253.490 449.200,254.400 449.025,254.400 448.771 C 254.400 448.218,255.418 447.200,255.971 447.200 C 256.207 447.200,256.400 446.930,256.400 446.600 C 256.400 446.111,257.067 446.000,260.000 446.000 L 263.600 446.000 263.600 444.600 L 263.600 443.200 266.400 443.200 C 268.933 443.200,269.200 443.124,269.200 442.400 C 269.200 441.956,269.467 441.600,269.800 441.600 C 270.130 441.600,270.400 441.330,270.400 441.000 C 270.400 440.539,270.911 440.400,272.600 440.400 C 274.533 440.400,274.800 440.303,274.800 439.600 C 274.800 439.156,275.067 438.800,275.400 438.800 C 275.730 438.800,276.000 438.530,276.000 438.200 C 276.000 437.747,276.488 437.600,277.995 437.600 C 280.152 437.600,281.600 436.761,281.600 435.511 C 281.600 434.897,281.983 434.800,284.400 434.800 L 287.200 434.800 287.200 433.400 C 287.200 432.067,287.267 432.000,288.600 432.000 C 289.733 432.000,290.000 431.848,290.000 431.200 C 290.000 430.760,290.180 430.400,290.400 430.400 C 290.620 430.400,290.800 430.130,290.800 429.800 C 290.800 429.381,291.222 429.200,292.200 429.200 C 292.970 429.200,293.600 429.020,293.600 428.800 C 293.600 428.580,294.050 428.400,294.600 428.400 C 295.345 428.400,295.600 428.189,295.600 427.571 C 295.600 426.510,296.510 425.600,297.571 425.600 C 298.143 425.600,298.400 425.343,298.400 424.771 C 298.400 423.710,299.310 422.800,300.371 422.800 C 300.943 422.800,301.200 422.543,301.200 421.971 C 301.200 420.600,302.174 420.000,304.400 420.000 C 306.626 420.000,307.600 419.400,307.600 418.029 C 307.600 417.348,307.851 417.200,309.000 417.200 C 310.333 417.200,310.400 417.133,310.400 415.800 L 310.400 414.400 313.200 414.400 L 316.000 414.400 316.000 411.600 L 316.000 408.800 317.400 408.800 C 318.733 408.800,318.800 408.733,318.800 407.400 C 318.800 406.173,318.924 406.000,319.800 406.000 C 320.422 406.000,320.800 405.773,320.800 405.400 C 320.800 405.070,320.980 404.800,321.200 404.800 C 321.420 404.800,321.600 403.810,321.600 402.600 C 321.600 400.911,321.739 400.400,322.200 400.400 C 322.530 400.400,322.800 400.130,322.800 399.800 C 322.800 399.467,323.156 399.200,323.600 399.200 C 324.281 399.200,324.400 398.933,324.400 397.400 C 324.400 396.067,324.556 395.600,325.000 395.600 C 325.373 395.600,325.600 395.222,325.600 394.600 C 325.600 393.800,325.800 393.600,326.600 393.600 C 327.519 393.600,327.600 393.453,327.600 391.800 C 327.600 390.810,327.780 390.000,328.000 390.000 C 328.220 390.000,328.400 389.550,328.400 389.000 C 328.400 388.200,328.600 388.000,329.400 388.000 C 330.133 388.000,330.400 387.787,330.400 387.200 C 330.400 386.760,330.580 386.400,330.800 386.400 C 331.020 386.400,331.200 385.500,331.200 384.400 C 331.200 382.644,331.301 382.400,332.029 382.400 C 333.400 382.400,334.000 381.426,334.000 379.200 C 334.000 376.974,334.600 376.000,335.971 376.000 C 336.757 376.000,336.800 375.782,336.800 371.800 L 336.800 367.600 338.200 367.600 L 339.600 367.600 339.600 362.000 L 339.600 356.400 340.600 356.400 C 341.222 356.400,341.600 356.173,341.600 355.800 C 341.600 355.470,341.780 355.200,342.000 355.200 C 342.255 355.200,342.400 351.867,342.400 346.000 C 342.400 340.133,342.545 336.800,342.800 336.800 C 343.020 336.800,343.200 336.530,343.200 336.200 C 343.200 335.827,343.578 335.600,344.200 335.600 L 345.200 335.600 345.200 320.371 C 345.200 304.637,345.262 304.000,346.799 304.000 C 347.050 304.000,347.198 303.595,347.128 303.100 C 346.935 301.744,340.400 301.464,340.400 302.812 C 340.400 303.888,339.495 304.800,338.429 304.800 C 337.857 304.800,337.600 305.057,337.600 305.629 C 337.600 306.690,336.690 307.600,335.629 307.600 C 334.948 307.600,334.800 307.851,334.800 309.000 C 334.800 310.333,334.733 310.400,333.400 310.400 C 332.251 310.400,332.000 310.548,332.000 311.229 C 332.000 312.223,331.108 313.200,330.200 313.200 C 329.292 313.200,328.400 314.177,328.400 315.171 C 328.400 315.917,328.161 316.000,326.000 316.000 C 323.839 316.000,323.600 316.083,323.600 316.829 C 323.600 317.823,322.708 318.800,321.800 318.800 C 320.892 318.800,320.000 319.777,320.000 320.771 C 320.000 321.485,319.754 321.600,318.224 321.600 C 317.247 321.600,316.336 321.780,316.200 322.000 C 316.064 322.220,315.603 322.400,315.176 322.400 C 314.615 322.400,314.400 322.677,314.400 323.400 C 314.400 324.022,314.173 324.400,313.800 324.400 C 313.470 324.400,313.200 324.559,313.200 324.753 C 313.200 324.948,312.840 325.201,312.400 325.316 C 311.921 325.441,311.600 325.862,311.600 326.363 C 311.600 326.989,311.348 327.200,310.600 327.200 C 309.978 327.200,309.600 327.427,309.600 327.800 C 309.600 328.244,309.133 328.400,307.800 328.400 C 306.467 328.400,306.000 328.556,306.000 329.000 C 306.000 330.273,304.483 331.200,302.400 331.200 C 300.667 331.200,300.400 331.307,300.400 332.000 C 300.400 332.444,300.133 332.800,299.800 332.800 C 299.470 332.800,299.200 333.070,299.200 333.400 C 299.200 333.876,298.622 334.000,296.400 334.000 L 293.600 334.000 293.600 335.400 L 293.600 336.800 290.800 336.800 L 288.000 336.800 288.000 338.200 L 288.000 339.600 285.200 339.600 C 282.667 339.600,282.400 339.676,282.400 340.400 C 282.400 340.840,282.220 341.200,282.000 341.200 C 281.780 341.200,281.600 341.470,281.600 341.800 C 281.600 342.291,280.911 342.400,277.800 342.400 C 274.267 342.400,274.000 342.456,274.000 343.200 C 274.000 343.640,273.820 344.000,273.600 344.000 C 273.380 344.000,273.200 344.270,273.200 344.600 C 273.200 344.973,272.822 345.200,272.200 345.200 C 271.650 345.200,271.200 345.380,271.200 345.600 C 271.200 345.843,269.400 346.000,266.600 346.000 L 262.000 346.000 262.000 347.000 C 262.000 347.622,261.773 348.000,261.400 348.000 C 261.070 348.000,260.800 348.173,260.800 348.385 C 260.800 348.597,259.137 348.822,257.105 348.885 C 253.822 348.987,253.393 349.086,253.261 349.772 C 252.946 351.421,252.295 351.600,246.629 351.600 C 241.404 351.600,241.200 351.631,241.200 352.429 C 241.200 354.025,240.293 354.400,236.429 354.400 C 233.025 354.400,232.800 354.451,232.800 355.229 C 232.800 356.960,231.999 357.200,226.229 357.200 L 220.800 357.200 220.800 358.200 C 220.800 358.822,220.573 359.200,220.200 359.200 C 219.870 359.200,219.600 359.380,219.600 359.600 C 219.600 359.856,216.067 360.000,209.800 360.000 C 200.154 360.000,200.000 360.013,200.000 360.829 C 200.000 362.514,198.124 363.381,196.971 362.229 C 195.908 361.166,196.136 166.400,197.200 166.400 C 197.644 166.400,198.000 166.133,198.000 165.800 C 198.000 165.470,198.270 165.200,198.600 165.200 C 199.108 165.200,199.200 164.219,199.200 158.771 C 199.200 151.936,199.392 151.200,201.171 151.200 C 201.949 151.200,202.000 150.975,202.000 147.571 C 202.000 143.707,202.375 142.800,203.971 142.800 C 204.725 142.800,204.800 142.564,204.800 140.171 C 204.800 137.354,205.299 136.400,206.771 136.400 C 207.510 136.400,207.600 136.159,207.600 134.171 C 207.600 131.769,208.166 130.800,209.571 130.800 C 210.299 130.800,210.400 130.556,210.400 128.800 C 210.400 127.700,210.580 126.800,210.800 126.800 C 211.020 126.800,211.200 126.440,211.200 126.000 C 211.200 125.413,211.467 125.200,212.200 125.200 C 212.822 125.200,213.200 124.973,213.200 124.600 C 213.200 124.270,213.380 124.000,213.600 124.000 C 213.820 124.000,214.000 123.550,214.000 123.000 C 214.000 122.255,214.211 122.000,214.829 122.000 C 215.823 122.000,216.800 121.108,216.800 120.200 C 216.800 119.292,217.777 118.400,218.771 118.400 C 219.389 118.400,219.600 118.145,219.600 117.400 C 219.600 116.600,219.800 116.400,220.600 116.400 C 221.150 116.400,221.600 116.220,221.600 116.000 C 221.600 115.780,222.410 115.600,223.400 115.600 C 225.053 115.600,225.200 115.519,225.200 114.600 C 225.200 113.978,225.427 113.600,225.800 113.600 C 226.130 113.600,226.400 113.420,226.400 113.200 C 226.400 112.980,227.390 112.800,228.600 112.800 C 230.680 112.800,230.800 112.745,230.800 111.800 C 230.800 111.178,231.027 110.800,231.400 110.800 C 231.730 110.800,232.000 110.620,232.000 110.400 C 232.000 110.159,233.667 110.000,236.200 110.000 L 240.400 110.000 240.400 108.600 L 240.400 107.200 301.600 107.200 L 362.800 107.200 362.800 64.200 L 362.800 21.200 274.000 21.200 C 185.467 21.200,185.200 21.202,185.200 22.000 M108.120 754.400 C 108.120 755.610,108.195 756.105,108.287 755.500 C 108.378 754.895,108.378 753.905,108.287 753.300 C 108.195 752.695,108.120 753.190,108.120 754.400 M176.502 827.600 C 176.624 828.048,177.416 828.234,179.633 828.335 C 181.265 828.409,182.510 828.379,182.399 828.267 C 182.288 828.156,181.028 828.020,179.599 827.966 C 178.170 827.912,176.851 827.673,176.670 827.434 C 176.459 827.158,176.398 827.218,176.502 827.600 "
              stroke="none" fill="#d3fb7c" fill-rule="evenodd"></path>
        <path id="path1"
              d="M191.356 487.802 C 190.138 489.170,190.047 489.200,187.033 489.200 C 184.087 489.200,183.905 489.254,182.798 490.466 C 181.670 491.701,181.516 491.744,176.606 492.166 C 171.858 492.575,171.542 492.656,171.082 493.583 C 170.495 494.764,169.411 495.107,166.100 495.160 C 163.573 495.200,163.390 495.292,161.684 497.371 C 161.357 497.771,160.522 498.000,159.398 498.000 C 157.917 498.000,157.404 498.223,156.267 499.360 C 155.001 500.626,154.673 500.739,151.486 501.004 C 148.341 501.266,148.045 501.365,147.829 502.227 C 147.581 503.215,145.674 503.993,143.490 503.998 C 142.673 503.999,142.279 504.266,141.997 505.007 C 141.549 506.186,140.173 506.800,137.982 506.800 C 136.640 506.800,136.379 506.945,136.162 507.811 C 135.851 509.048,134.894 509.600,133.059 509.600 C 131.319 509.600,130.400 509.939,130.400 510.581 C 130.400 511.520,128.990 512.347,126.920 512.622 C 125.108 512.862,124.794 513.041,124.448 514.035 C 124.207 514.726,123.669 515.268,123.076 515.417 C 122.539 515.551,121.906 516.089,121.668 516.612 C 121.429 517.134,120.714 517.831,120.077 518.160 C 119.440 518.490,118.623 519.211,118.260 519.764 C 117.853 520.386,116.954 520.936,115.901 521.208 C 114.965 521.450,113.928 521.725,113.596 521.820 C 113.264 521.915,112.814 522.399,112.596 522.895 C 112.378 523.391,111.716 524.027,111.124 524.309 C 110.532 524.590,109.929 525.193,109.785 525.647 C 109.641 526.101,108.931 526.720,108.208 527.022 C 107.379 527.369,106.800 527.944,106.641 528.580 C 106.484 529.206,106.012 529.682,105.395 529.837 C 104.849 529.974,104.177 530.556,103.901 531.131 C 103.626 531.706,102.978 532.387,102.463 532.644 C 101.947 532.901,101.194 533.655,100.790 534.321 C 100.181 535.321,99.687 535.589,97.927 535.869 L 95.800 536.208 95.699 620.975 L 95.598 705.741 96.999 707.025 L 98.400 708.308 98.400 714.564 L 98.400 720.820 99.376 721.191 C 100.894 721.768,101.200 722.817,101.206 727.474 C 101.213 732.154,101.281 732.389,102.842 733.073 C 104.025 733.592,104.388 734.992,104.396 739.057 C 104.400 741.351,104.467 741.530,105.414 741.768 C 106.757 742.105,107.200 743.410,107.200 747.026 C 107.200 748.828,107.365 750.000,107.618 750.000 C 108.754 750.000,110.000 751.988,110.000 753.800 C 110.000 755.420,110.141 755.718,111.194 756.319 C 112.694 757.175,112.801 757.468,113.086 761.507 C 113.304 764.586,113.387 764.832,114.289 765.058 C 115.419 765.342,116.000 766.618,116.000 768.816 C 116.000 770.147,116.178 770.471,117.194 770.997 C 118.370 771.605,118.516 771.921,118.995 774.899 C 119.175 776.021,119.528 776.549,120.398 776.999 C 121.424 777.530,121.592 777.881,121.832 780.000 C 121.981 781.320,122.268 782.400,122.470 782.400 C 123.601 782.400,124.800 784.423,124.800 786.332 C 124.800 788.202,124.860 788.312,126.008 788.542 C 126.921 788.724,127.272 789.054,127.443 789.892 C 127.592 790.623,128.099 791.204,128.934 791.600 C 130.088 792.147,130.211 792.385,130.321 794.301 C 130.429 796.174,130.571 796.468,131.638 797.020 C 132.296 797.360,133.027 798.060,133.262 798.575 C 133.496 799.091,134.119 799.742,134.645 800.024 C 135.171 800.305,135.955 801.135,136.387 801.868 C 136.819 802.601,137.455 803.200,137.800 803.200 C 138.145 803.200,138.799 803.830,139.253 804.600 C 139.707 805.370,140.337 806.000,140.653 806.000 C 140.969 806.000,141.588 806.612,142.030 807.361 C 142.471 808.109,143.281 808.834,143.828 808.971 C 144.525 809.146,144.896 809.579,145.062 810.411 C 145.267 811.435,145.479 811.600,146.590 811.600 C 148.623 811.600,150.378 812.373,150.631 813.380 C 150.755 813.875,151.415 814.532,152.098 814.840 C 152.781 815.148,153.533 815.760,153.770 816.200 C 154.407 817.384,154.829 817.587,156.671 817.594 C 158.354 817.600,159.600 818.362,159.600 819.386 C 159.600 820.053,160.490 820.400,162.200 820.400 C 164.073 820.400,164.745 820.734,165.393 821.986 C 165.948 823.059,166.030 823.079,170.876 823.323 L 175.796 823.570 176.870 824.885 L 177.943 826.200 270.071 826.200 L 362.200 826.200 362.200 785.000 L 362.200 743.800 300.239 743.699 C 234.511 743.591,237.517 743.685,236.768 741.716 C 236.445 740.865,236.189 740.800,233.184 740.800 C 229.603 740.800,228.543 740.428,227.991 738.976 C 227.696 738.201,227.335 738.000,226.236 738.000 C 224.253 738.000,222.858 737.366,222.340 736.228 C 222.092 735.684,221.381 735.062,220.759 734.846 C 220.058 734.601,219.532 734.067,219.375 733.442 C 219.235 732.887,218.524 732.080,217.794 731.649 C 216.622 730.958,216.433 730.606,216.190 728.657 C 215.945 726.694,215.787 726.404,214.771 726.050 C 214.059 725.802,213.533 725.271,213.375 724.642 C 213.235 724.084,212.513 723.273,211.761 722.830 C 210.629 722.162,210.400 721.794,210.400 720.640 C 210.400 718.597,209.756 717.200,208.815 717.200 C 208.274 717.200,207.819 716.742,207.426 715.800 C 207.104 715.030,206.572 714.400,206.243 714.400 C 205.274 714.400,204.400 712.750,204.400 710.921 C 204.400 709.442,204.246 709.141,203.219 708.610 C 202.010 707.984,201.207 706.135,201.202 703.964 C 201.201 703.247,200.890 702.787,200.192 702.469 C 198.678 701.779,198.400 700.495,198.400 694.184 L 198.400 688.421 197.253 687.828 C 195.527 686.935,195.600 691.464,195.600 585.550 L 195.600 486.400 194.100 486.402 C 192.892 486.404,192.358 486.676,191.356 487.802 "
              stroke="none" fill="#9bcc24" fill-rule="evenodd"></path>
        <path id="path2"
              d="M190.891 487.163 C 190.092 488.244,189.784 488.345,186.516 488.608 C 183.424 488.856,182.901 489.012,182.176 489.897 C 181.232 491.051,179.026 491.539,174.574 491.576 C 171.859 491.599,171.698 491.655,170.508 493.000 C 169.405 494.246,169.034 494.407,167.134 494.463 C 164.378 494.544,164.326 494.541,163.500 494.202 C 163.070 494.025,162.800 494.094,162.800 494.379 C 162.800 495.591,160.565 497.232,158.800 497.316 C 157.380 497.383,156.812 497.647,155.914 498.655 C 154.689 500.030,151.506 500.866,150.672 500.032 C 149.911 499.271,149.236 499.559,147.393 501.428 C 146.179 502.660,145.299 503.228,144.696 503.169 C 143.437 503.046,142.367 503.544,141.165 504.814 C 140.410 505.611,139.563 505.985,138.038 506.195 C 136.383 506.422,135.856 506.679,135.517 507.421 C 135.061 508.424,133.358 509.200,131.614 509.200 C 130.898 509.200,130.140 509.660,129.308 510.600 C 128.564 511.440,127.694 512.002,127.134 512.005 C 125.443 512.015,124.504 512.454,124.052 513.445 C 123.807 513.983,123.290 514.532,122.903 514.667 C 122.219 514.905,120.450 516.474,117.924 519.084 C 117.038 519.999,116.066 520.496,114.541 520.812 C 113.363 521.057,112.400 521.469,112.399 521.728 C 112.399 521.988,111.294 523.190,109.945 524.400 C 108.596 525.610,105.564 528.510,103.208 530.845 C 99.313 534.705,98.756 535.116,97.062 535.370 C 96.038 535.523,95.200 535.818,95.200 536.025 C 95.200 536.231,94.930 536.400,94.600 536.400 C 94.267 536.400,94.000 536.756,94.000 537.200 C 94.000 537.640,94.180 538.000,94.400 538.000 C 94.921 538.000,94.921 540.278,94.400 540.600 C 93.879 540.922,93.879 542.800,94.400 542.800 C 94.665 542.800,94.800 567.867,94.800 617.200 C 94.800 666.533,94.665 691.600,94.400 691.600 C 94.148 691.600,94.000 694.267,94.000 698.800 C 94.000 703.417,94.146 706.000,94.407 706.000 C 95.763 706.000,97.600 708.896,97.600 711.034 C 97.600 712.225,97.420 713.200,97.200 713.200 C 96.955 713.200,96.830 714.714,96.878 717.100 C 96.944 720.352,96.980 720.552,97.097 718.300 C 97.281 714.751,98.000 714.809,98.000 718.373 C 98.000 720.997,98.064 721.191,99.200 722.000 C 100.382 722.841,100.971 725.200,100.000 725.200 C 99.780 725.200,99.627 725.965,99.660 726.900 C 99.702 728.106,99.768 728.279,99.887 727.493 C 100.198 725.434,100.800 726.829,100.800 729.610 C 100.800 732.220,100.875 732.449,102.163 733.736 C 103.569 735.142,104.401 738.791,103.906 741.380 C 103.803 741.919,103.827 742.350,103.959 742.337 C 105.897 742.148,106.957 744.491,106.732 748.464 C 106.621 750.438,106.704 750.801,107.271 750.801 C 108.344 750.800,109.600 752.737,109.600 754.393 C 109.600 755.548,109.910 756.197,111.000 757.319 C 112.320 758.677,112.400 758.917,112.406 761.480 C 112.413 764.458,112.510 764.707,114.043 765.681 C 115.223 766.431,115.882 768.978,115.130 769.884 C 114.886 770.179,114.757 770.460,114.843 770.510 C 114.929 770.559,115.540 770.898,116.200 771.262 C 117.795 772.141,118.592 773.704,117.961 774.713 C 117.560 775.356,117.753 775.714,119.348 777.286 C 121.204 779.116,121.635 780.152,120.700 780.542 C 120.336 780.693,120.391 780.905,120.900 781.319 C 121.285 781.632,121.600 782.164,121.600 782.501 C 121.600 782.838,122.030 783.221,122.556 783.353 C 123.568 783.607,124.338 784.887,123.623 785.126 C 123.025 785.325,123.095 786.021,123.700 785.900 C 124.008 785.838,124.246 786.344,124.319 787.220 C 124.416 788.375,124.659 788.722,125.623 789.086 C 126.474 789.407,126.876 789.880,127.053 790.766 C 127.229 791.643,127.528 792.000,128.087 792.000 C 128.538 792.000,128.964 792.342,129.084 792.800 C 129.199 793.240,129.452 793.600,129.647 793.600 C 129.841 793.600,130.000 794.377,130.000 795.326 C 130.000 796.905,130.119 797.109,131.400 797.719 C 132.241 798.121,132.800 798.677,132.800 799.114 C 132.800 799.513,133.025 800.082,133.300 800.379 C 133.710 800.821,133.659 800.868,133.012 800.638 C 132.579 800.484,132.370 800.502,132.547 800.679 C 132.724 800.855,133.439 801.000,134.135 801.000 C 135.309 801.000,135.409 801.108,135.525 802.508 C 135.597 803.382,135.817 803.913,136.047 803.771 C 136.693 803.372,138.291 803.938,138.569 804.665 C 138.711 805.034,138.618 805.465,138.362 805.623 C 137.602 806.093,138.374 806.822,139.367 806.573 C 140.567 806.271,141.730 807.409,141.492 808.651 C 141.395 809.160,141.480 809.474,141.681 809.350 C 142.496 808.846,144.062 809.658,144.456 810.789 C 144.738 811.598,145.215 812.028,146.030 812.207 C 146.674 812.348,147.200 812.651,147.200 812.881 C 147.200 813.122,147.472 813.073,147.844 812.764 C 148.402 812.301,148.690 812.453,150.013 813.915 C 150.852 814.842,151.822 815.600,152.169 815.600 C 152.516 815.600,152.800 815.782,152.800 816.004 C 152.800 817.192,155.073 818.770,156.459 818.545 C 157.725 818.340,157.986 818.473,159.201 819.942 C 160.468 821.474,160.637 821.552,162.212 821.336 C 163.801 821.119,163.937 821.184,165.025 822.698 L 166.168 824.288 170.712 824.244 L 175.257 824.200 176.400 825.600 L 177.542 827.000 270.173 827.124 L 362.804 827.248 362.702 785.324 L 362.600 743.400 300.600 743.192 C 266.500 743.077,238.560 742.942,238.510 742.892 C 238.461 742.841,238.151 742.278,237.821 741.640 C 237.235 740.508,237.135 740.477,233.582 740.340 C 230.029 740.203,229.917 740.169,228.871 738.896 C 228.282 738.179,227.575 737.594,227.300 737.596 C 227.025 737.598,226.800 737.425,226.800 737.210 C 226.800 736.995,226.293 736.921,225.673 737.045 C 224.728 737.234,224.242 736.975,222.658 735.435 C 221.619 734.426,220.618 733.600,220.433 733.600 C 220.248 733.600,219.876 733.066,219.606 732.413 C 219.335 731.761,218.762 731.115,218.333 730.979 C 217.468 730.704,216.967 729.714,216.623 727.600 C 216.461 726.598,216.059 726.008,215.212 725.527 C 214.561 725.157,213.914 724.398,213.775 723.841 C 213.635 723.284,213.176 722.719,212.756 722.586 C 211.776 722.275,210.800 720.390,210.800 718.807 C 210.800 718.081,210.554 717.480,210.200 717.345 C 209.870 717.218,209.600 716.869,209.600 716.570 C 209.600 716.252,209.352 716.120,209.006 716.253 C 208.620 716.401,208.279 716.133,208.035 715.493 C 207.829 714.950,207.187 714.133,206.610 713.679 C 205.441 712.760,204.582 710.458,205.183 709.857 C 205.418 709.622,204.888 708.968,203.777 708.120 C 202.234 706.942,202.051 706.651,202.421 705.961 C 202.954 704.966,201.776 702.140,200.676 701.773 C 199.714 701.451,198.805 699.532,199.505 699.298 C 199.777 699.208,200.000 698.778,200.000 698.343 C 200.000 697.908,199.844 697.649,199.653 697.767 C 199.193 698.051,198.800 695.026,198.800 691.203 C 198.800 688.322,198.721 688.036,197.600 686.863 C 196.348 685.553,195.757 680.044,196.800 679.400 C 197.361 679.053,197.299 677.459,196.700 676.860 C 196.303 676.463,196.178 656.678,196.095 581.180 L 195.990 486.000 193.870 486.000 C 191.994 486.000,191.652 486.133,190.891 487.163 M195.600 585.550 C 195.600 691.464,195.527 686.935,197.253 687.828 L 198.400 688.421 198.400 694.184 C 198.400 700.495,198.678 701.779,200.192 702.469 C 200.890 702.787,201.201 703.247,201.202 703.964 C 201.207 706.135,202.010 707.984,203.219 708.610 C 204.246 709.141,204.400 709.442,204.400 710.921 C 204.400 712.750,205.274 714.400,206.243 714.400 C 206.572 714.400,207.104 715.030,207.426 715.800 C 207.819 716.742,208.274 717.200,208.815 717.200 C 209.756 717.200,210.400 718.597,210.400 720.640 C 210.400 721.794,210.629 722.162,211.761 722.830 C 212.513 723.273,213.235 724.084,213.375 724.642 C 213.533 725.271,214.059 725.802,214.771 726.050 C 215.787 726.404,215.945 726.694,216.190 728.657 C 216.433 730.606,216.622 730.958,217.794 731.649 C 218.524 732.080,219.235 732.887,219.375 733.442 C 219.532 734.067,220.058 734.601,220.759 734.846 C 221.381 735.062,222.092 735.684,222.340 736.228 C 222.858 737.366,224.253 738.000,226.236 738.000 C 227.335 738.000,227.696 738.201,227.991 738.976 C 228.543 740.428,229.603 740.800,233.184 740.800 C 236.189 740.800,236.445 740.865,236.768 741.716 C 237.517 743.685,234.511 743.591,300.239 743.699 L 362.200 743.800 362.200 785.000 L 362.200 826.200 270.071 826.200 L 177.943 826.200 176.870 824.885 L 175.796 823.570 170.876 823.323 C 166.030 823.079,165.948 823.059,165.393 821.986 C 164.745 820.734,164.073 820.400,162.200 820.400 C 160.490 820.400,159.600 820.053,159.600 819.386 C 159.600 818.362,158.354 817.600,156.671 817.594 C 154.829 817.587,154.407 817.384,153.770 816.200 C 153.533 815.760,152.781 815.148,152.098 814.840 C 151.415 814.532,150.755 813.875,150.631 813.380 C 150.378 812.373,148.623 811.600,146.590 811.600 C 145.479 811.600,145.267 811.435,145.062 810.411 C 144.896 809.579,144.525 809.146,143.828 808.971 C 143.281 808.834,142.471 808.109,142.030 807.361 C 141.588 806.612,140.969 806.000,140.653 806.000 C 140.337 806.000,139.707 805.370,139.253 804.600 C 138.799 803.830,138.145 803.200,137.800 803.200 C 137.455 803.200,136.819 802.601,136.387 801.868 C 135.955 801.135,135.171 800.305,134.645 800.024 C 134.119 799.742,133.496 799.091,133.262 798.575 C 133.027 798.060,132.296 797.360,131.638 797.020 C 130.571 796.468,130.429 796.174,130.321 794.301 C 130.211 792.385,130.088 792.147,128.934 791.600 C 128.099 791.204,127.592 790.623,127.443 789.892 C 127.272 789.054,126.921 788.724,126.008 788.542 C 124.860 788.312,124.800 788.202,124.800 786.332 C 124.800 784.423,123.601 782.400,122.470 782.400 C 122.268 782.400,121.981 781.320,121.832 780.000 C 121.592 777.881,121.424 777.530,120.398 776.999 C 119.528 776.549,119.175 776.021,118.995 774.899 C 118.516 771.921,118.370 771.605,117.194 770.997 C 116.178 770.471,116.000 770.147,116.000 768.816 C 116.000 766.618,115.419 765.342,114.289 765.058 C 113.387 764.832,113.304 764.586,113.086 761.507 C 112.801 757.468,112.694 757.175,111.194 756.319 C 110.141 755.718,110.000 755.420,110.000 753.800 C 110.000 751.988,108.754 750.000,107.618 750.000 C 107.365 750.000,107.200 748.828,107.200 747.026 C 107.200 743.410,106.757 742.105,105.414 741.768 C 104.467 741.530,104.400 741.351,104.396 739.057 C 104.388 734.992,104.025 733.592,102.842 733.073 C 101.281 732.389,101.213 732.154,101.206 727.474 C 101.200 722.817,100.894 721.768,99.376 721.191 L 98.400 720.820 98.400 714.564 L 98.400 708.308 96.999 707.025 L 95.598 705.741 95.699 620.975 L 95.800 536.208 97.927 535.869 C 99.687 535.589,100.181 535.321,100.790 534.321 C 101.194 533.655,101.947 532.901,102.463 532.644 C 102.978 532.387,103.626 531.706,103.901 531.131 C 104.177 530.556,104.849 529.974,105.395 529.837 C 106.012 529.682,106.484 529.206,106.641 528.580 C 106.800 527.944,107.379 527.369,108.208 527.022 C 108.931 526.720,109.641 526.101,109.785 525.647 C 109.929 525.193,110.532 524.590,111.124 524.309 C 111.716 524.027,112.378 523.391,112.596 522.895 C 112.814 522.399,113.264 521.915,113.596 521.820 C 113.928 521.725,114.965 521.450,115.901 521.208 C 116.954 520.936,117.853 520.386,118.260 519.764 C 118.623 519.211,119.440 518.490,120.077 518.160 C 120.714 517.831,121.429 517.134,121.668 516.612 C 121.906 516.089,122.539 515.551,123.076 515.417 C 123.669 515.268,124.207 514.726,124.448 514.035 C 124.794 513.041,125.108 512.862,126.920 512.622 C 128.990 512.347,130.400 511.520,130.400 510.581 C 130.400 509.939,131.319 509.600,133.059 509.600 C 134.894 509.600,135.851 509.048,136.162 507.811 C 136.379 506.945,136.640 506.800,137.982 506.800 C 140.173 506.800,141.549 506.186,141.997 505.007 C 142.279 504.266,142.673 503.999,143.490 503.998 C 145.674 503.993,147.581 503.215,147.829 502.227 C 148.045 501.365,148.341 501.266,151.486 501.004 C 154.673 500.739,155.001 500.626,156.267 499.360 C 157.404 498.223,157.917 498.000,159.398 498.000 C 160.522 498.000,161.357 497.771,161.684 497.371 C 163.390 495.292,163.573 495.200,166.100 495.160 C 169.411 495.107,170.495 494.764,171.082 493.583 C 171.542 492.656,171.858 492.575,176.606 492.166 C 181.516 491.744,181.670 491.701,182.798 490.466 C 183.905 489.254,184.087 489.200,187.033 489.200 C 190.047 489.200,190.138 489.170,191.356 487.802 C 192.358 486.676,192.892 486.404,194.100 486.402 L 195.600 486.400 195.600 585.550 "
              stroke="none" fill="#a5d450" fill-rule="evenodd"></path>
        <path id="path3"
              d="M189.600 486.000 C 189.600 486.220,189.240 486.400,188.800 486.400 C 188.360 486.400,188.000 486.580,188.000 486.800 C 188.000 487.020,186.785 487.234,185.300 487.276 L 182.600 487.351 184.900 487.496 C 186.165 487.575,187.200 487.811,187.200 488.020 C 187.200 488.229,187.817 488.400,188.571 488.400 C 189.965 488.400,191.860 486.744,191.371 485.953 C 191.071 485.467,189.600 485.506,189.600 486.000 M179.600 488.800 C 179.600 489.020,179.150 489.200,178.600 489.200 C 178.004 489.200,177.600 489.429,177.600 489.767 C 177.600 490.078,177.375 490.416,177.100 490.517 C 176.765 490.639,176.732 490.836,177.000 491.111 C 178.130 492.273,183.377 490.058,182.574 488.758 C 182.270 488.266,179.600 488.304,179.600 488.800 M169.200 491.600 C 169.200 491.820,168.930 492.000,168.600 492.000 C 168.270 492.000,168.000 492.255,168.000 492.567 C 168.000 492.878,167.788 493.204,167.529 493.290 C 166.825 493.525,167.530 494.400,168.424 494.400 C 169.434 494.400,170.800 493.020,170.800 492.000 C 170.800 491.467,170.533 491.200,170.000 491.200 C 169.560 491.200,169.200 491.380,169.200 491.600 M160.600 494.524 C 160.160 494.786,159.770 495.000,159.733 495.001 C 159.695 495.001,159.541 495.496,159.389 496.101 C 159.158 497.023,159.241 497.200,159.908 497.200 C 160.912 497.200,161.794 496.156,161.819 494.939 C 161.839 493.885,161.733 493.849,160.600 494.524 M155.200 497.200 C 155.200 497.420,154.750 497.600,154.200 497.600 C 153.578 497.600,153.200 497.827,153.200 498.200 C 153.200 498.530,152.857 498.800,152.437 498.800 C 151.878 498.800,151.729 499.008,151.879 499.582 C 152.298 501.184,156.400 499.323,156.400 497.530 C 156.400 497.129,156.130 496.800,155.800 496.800 C 155.470 496.800,155.200 496.980,155.200 497.200 M145.600 500.971 C 145.600 501.333,145.261 501.600,144.800 501.600 C 143.838 501.600,143.732 502.611,144.656 502.966 C 145.542 503.306,147.281 502.115,147.120 501.279 C 146.951 500.403,145.600 500.128,145.600 500.971 M140.145 503.800 C 140.018 504.130,139.484 504.400,138.957 504.400 C 137.873 504.400,137.723 504.872,138.581 505.584 C 139.675 506.493,142.119 504.763,141.395 503.592 C 141.036 503.012,140.407 503.116,140.145 503.800 M134.100 507.088 C 133.061 508.287,132.962 508.800,133.771 508.800 C 134.588 508.800,135.600 507.677,135.600 506.771 C 135.600 505.746,135.188 505.833,134.100 507.088 M128.945 509.400 C 128.818 509.730,128.284 510.000,127.757 510.000 C 126.770 510.000,126.625 510.278,127.043 511.367 C 127.481 512.508,130.000 510.782,130.000 509.342 C 130.000 508.610,129.232 508.652,128.945 509.400 M119.800 514.733 C 119.690 514.843,119.600 515.263,119.600 515.667 C 119.600 516.182,119.303 516.400,118.600 516.400 C 118.050 516.400,117.600 516.580,117.600 516.800 C 117.600 517.020,117.338 517.200,117.018 517.200 C 116.156 517.200,114.335 519.177,114.495 519.940 C 114.713 520.983,116.442 520.545,117.843 519.090 C 118.527 518.381,119.458 517.526,119.913 517.191 C 121.003 516.387,121.501 514.533,120.627 514.533 C 120.282 514.533,119.910 514.623,119.800 514.733 M106.900 524.598 C 106.625 524.911,106.400 525.354,106.400 525.583 C 106.400 525.812,106.175 525.955,105.900 525.900 C 105.625 525.845,105.445 526.025,105.500 526.300 C 105.555 526.575,105.429 526.800,105.219 526.800 C 104.723 526.800,100.800 530.723,100.800 531.219 C 100.800 531.429,100.438 531.600,99.996 531.600 C 98.862 531.600,96.722 533.732,97.036 534.550 C 97.557 535.908,98.914 535.103,103.181 530.900 C 105.583 528.535,108.009 526.177,108.572 525.659 C 109.136 525.142,109.497 524.557,109.375 524.359 C 109.035 523.809,107.461 523.961,106.900 524.598 M196.667 679.467 C 195.839 680.295,196.413 685.650,197.440 686.677 C 198.279 687.515,198.549 687.609,198.834 687.158 C 199.349 686.345,199.279 686.000,198.600 686.000 C 198.114 686.000,198.000 685.356,198.000 682.600 C 198.000 679.329,197.643 678.490,196.667 679.467 M199.673 700.212 C 199.743 700.769,199.960 701.204,200.155 701.178 C 200.351 701.153,200.658 701.371,200.839 701.662 C 201.109 702.101,201.257 702.096,201.683 701.638 C 202.080 701.212,202.083 701.149,201.695 701.368 C 201.353 701.561,201.112 701.259,200.945 700.427 C 200.643 698.913,199.487 698.718,199.673 700.212 M95.284 707.815 C 94.858 708.298,94.875 708.400,95.384 708.400 C 95.805 708.400,96.000 708.789,96.000 709.629 C 96.000 711.062,97.314 711.190,97.517 709.777 C 97.732 708.285,96.119 706.868,95.284 707.815 M205.437 711.940 C 205.084 712.511,206.317 713.607,207.012 713.340 C 207.651 713.095,207.831 712.000,207.233 712.000 C 207.031 712.000,206.599 711.898,206.273 711.773 C 205.947 711.648,205.571 711.723,205.437 711.940 M211.200 720.724 C 211.200 720.901,211.458 721.396,211.773 721.824 C 212.444 722.733,213.476 722.097,213.066 721.027 C 212.822 720.392,211.200 720.128,211.200 720.724 M98.133 722.230 C 97.970 722.655,98.051 723.017,98.328 723.109 C 98.588 723.196,98.800 723.715,98.800 724.263 C 98.800 724.996,98.985 725.223,99.500 725.124 C 100.556 724.920,100.422 722.845,99.305 722.103 C 98.494 721.565,98.384 721.577,98.133 722.230 M217.257 728.356 C 216.439 728.875,217.073 730.314,218.428 731.015 C 219.538 731.588,219.600 731.577,219.600 730.810 C 219.600 730.365,219.420 730.000,219.200 730.000 C 218.980 730.000,218.800 729.550,218.800 729.000 C 218.800 727.979,218.228 727.741,217.257 728.356 M99.714 730.200 C 99.717 731.300,99.795 731.703,99.887 731.095 C 99.979 730.486,99.977 729.586,99.882 729.095 C 99.787 728.603,99.711 729.100,99.714 730.200 M222.562 734.300 C 222.709 736.245,224.665 737.742,225.815 736.788 C 226.529 736.195,226.210 735.600,225.176 735.600 C 224.749 735.600,224.400 735.420,224.400 735.200 C 224.400 734.980,224.130 734.800,223.800 734.800 C 223.470 734.800,223.200 734.530,223.200 734.200 C 223.200 733.870,223.045 733.600,222.855 733.600 C 222.665 733.600,222.533 733.915,222.562 734.300 M237.800 741.600 C 238.551 743.052,240.400 743.336,240.400 742.000 C 240.400 741.413,240.133 741.200,239.400 741.200 C 238.850 741.200,238.400 741.020,238.400 740.800 C 238.400 740.580,238.125 740.400,237.790 740.400 C 237.245 740.400,237.246 740.529,237.800 741.600 M109.635 757.170 C 109.029 757.554,109.872 758.800,110.738 758.800 C 110.955 758.800,111.193 758.974,111.267 759.187 C 111.340 759.400,111.630 759.431,111.912 759.256 C 112.307 759.011,112.232 758.694,111.583 757.869 C 110.666 756.703,110.479 756.636,109.635 757.170 M147.715 813.076 C 147.571 813.453,147.665 813.822,147.928 813.909 C 148.188 813.996,148.400 814.322,148.400 814.633 C 148.400 815.294,149.828 815.402,150.218 814.770 C 150.489 814.332,148.940 812.400,148.318 812.400 C 148.129 812.400,147.858 812.704,147.715 813.076 M172.444 824.319 C 171.688 824.571,171.956 825.600,172.776 825.600 C 173.203 825.600,173.664 825.780,173.800 826.000 C 173.936 826.220,174.397 826.400,174.824 826.400 C 175.251 826.400,175.600 826.580,175.600 826.800 C 175.600 827.020,175.870 827.200,176.200 827.200 C 176.964 827.200,176.967 826.417,176.209 825.334 C 175.655 824.544,173.506 823.965,172.444 824.319 M190.976 827.787 C 190.293 828.304,198.286 828.376,257.900 828.387 C 302.758 828.396,325.600 828.535,325.600 828.800 C 325.600 829.352,326.648 829.301,327.605 828.704 C 328.238 828.309,328.562 828.309,329.195 828.704 C 330.142 829.296,361.200 829.434,361.200 828.847 C 361.200 828.652,361.560 828.399,362.000 828.284 C 365.846 827.278,359.718 827.200,277.276 827.200 C 202.698 827.200,191.654 827.275,190.976 827.787 "
              stroke="none" fill="#a1dc79" fill-rule="evenodd"></path>
        <path id="path4"
              d="M191.677 484.685 C 189.892 485.026,191.051 485.799,193.527 485.919 L 195.990 486.038 196.095 581.199 C 196.178 656.682,196.303 676.463,196.700 676.860 C 197.100 677.260,197.200 658.217,197.200 581.644 L 197.200 485.928 196.300 485.177 C 195.435 484.456,193.793 484.281,191.677 484.685 M182.400 488.220 C 182.400 488.721,182.835 488.817,184.668 488.720 C 187.925 488.548,188.065 487.600,184.833 487.600 C 182.902 487.600,182.400 487.728,182.400 488.220 M170.800 491.538 C 170.800 492.333,170.907 492.453,171.280 492.080 C 171.559 491.801,172.895 491.600,174.467 491.600 C 176.748 491.600,177.137 491.502,176.937 490.980 C 176.466 489.752,170.800 490.267,170.800 491.538 M164.000 493.606 C 163.263 494.090,164.224 494.930,165.133 494.596 C 165.426 494.488,166.095 494.400,166.620 494.400 C 167.304 494.400,167.510 494.230,167.345 493.800 C 167.083 493.117,164.934 492.993,164.000 493.606 M161.867 494.267 C 161.406 494.727,161.575 495.200,162.200 495.200 C 162.530 495.200,162.800 494.930,162.800 494.600 C 162.800 493.975,162.327 493.806,161.867 494.267 M156.880 496.480 C 156.616 496.744,156.414 497.239,156.432 497.580 C 156.449 497.921,156.543 498.007,156.641 497.771 C 156.739 497.535,157.355 497.420,158.010 497.516 C 159.010 497.663,159.200 497.556,159.200 496.845 C 159.200 495.886,157.709 495.651,156.880 496.480 M150.468 499.459 C 150.546 499.862,150.938 500.254,151.341 500.332 C 151.869 500.433,152.033 500.269,151.932 499.741 C 151.854 499.338,151.462 498.946,151.059 498.868 C 150.531 498.767,150.367 498.931,150.468 499.459 M146.800 500.133 C 146.800 500.978,147.244 501.204,148.053 500.772 C 149.110 500.206,148.979 499.600,147.800 499.600 C 147.233 499.600,146.800 499.831,146.800 500.133 M141.200 502.976 C 141.200 503.853,141.754 504.013,142.839 503.450 C 143.379 503.170,144.086 503.012,144.410 503.101 C 144.916 503.238,144.915 503.201,144.400 502.837 C 143.483 502.188,141.200 502.288,141.200 502.976 M135.494 505.439 C 135.109 505.824,135.622 506.763,136.133 506.608 C 136.390 506.530,137.102 506.357,137.716 506.222 C 138.330 506.087,138.725 505.802,138.593 505.588 C 138.332 505.167,135.884 505.049,135.494 505.439 M130.000 508.711 C 130.000 509.298,130.277 509.395,131.600 509.269 C 132.629 509.170,133.200 508.917,133.200 508.558 C 133.200 508.174,132.702 508.000,131.600 508.000 C 130.334 508.000,130.000 508.148,130.000 508.711 M123.900 511.346 C 123.515 511.644,123.200 512.027,123.200 512.198 C 123.200 512.368,122.775 512.888,122.255 513.353 C 121.113 514.376,120.408 516.458,121.528 515.498 C 121.898 515.181,122.517 514.809,122.903 514.672 C 123.290 514.535,123.813 513.970,124.065 513.418 C 124.374 512.739,124.962 512.331,125.879 512.159 C 126.625 512.019,127.168 511.701,127.087 511.452 C 126.869 510.789,124.712 510.717,123.900 511.346 M112.200 520.523 C 111.540 521.249,110.395 522.265,109.655 522.780 C 108.496 523.589,108.403 523.770,108.976 524.091 C 109.742 524.519,112.400 522.749,112.400 521.811 C 112.400 521.510,112.921 521.149,113.557 521.010 C 114.455 520.812,114.668 520.582,114.510 519.978 C 114.219 518.863,113.571 519.016,112.200 520.523 M95.200 534.800 C 95.200 535.020,94.930 535.200,94.600 535.200 C 94.270 535.200,94.000 535.470,94.000 535.800 C 94.000 536.130,94.270 536.400,94.600 536.400 C 94.930 536.400,95.200 536.233,95.200 536.028 C 95.200 535.823,95.591 535.598,96.069 535.528 C 97.349 535.339,97.486 534.400,96.233 534.400 C 95.665 534.400,95.200 534.580,95.200 534.800 M93.200 539.429 C 93.200 541.362,94.537 541.246,94.725 539.297 C 94.830 538.213,94.715 538.000,94.025 538.000 C 93.346 538.000,93.200 538.252,93.200 539.429 M93.467 543.067 C 92.662 543.872,93.192 691.600,94.000 691.600 C 94.797 691.600,94.800 691.333,94.800 617.200 C 94.800 541.110,94.811 541.722,93.467 543.067 M198.771 687.300 C 198.542 691.208,199.118 698.098,199.646 697.772 C 200.320 697.355,200.084 686.800,199.400 686.800 C 199.070 686.800,198.787 687.025,198.771 687.300 M201.626 702.490 C 202.154 704.333,202.800 704.820,202.800 703.376 C 202.800 702.643,202.508 702.010,202.033 701.713 C 201.316 701.266,201.289 701.317,201.626 702.490 M202.258 706.193 C 202.110 706.578,202.651 707.260,203.795 708.134 C 204.863 708.950,205.415 709.625,205.193 709.847 C 204.636 710.404,205.178 711.983,205.839 711.730 C 206.482 711.483,206.600 709.771,206.000 709.400 C 205.780 709.264,205.600 708.880,205.600 708.546 C 205.600 707.096,202.696 705.052,202.258 706.193 M94.000 706.976 C 94.000 708.107,94.417 708.484,95.162 708.024 C 95.830 707.611,95.361 706.000,94.573 706.000 C 94.232 706.000,94.000 706.396,94.000 706.976 M96.677 710.680 C 95.721 710.928,95.905 712.937,96.900 713.126 C 97.461 713.232,97.600 712.975,97.600 711.829 C 97.600 711.043,97.555 710.421,97.500 710.446 C 97.445 710.472,97.075 710.577,96.677 710.680 M206.800 713.576 C 206.800 713.783,206.991 714.071,207.225 714.215 C 207.458 714.360,207.814 714.910,208.015 715.439 C 208.216 715.967,208.565 716.400,208.790 716.400 C 209.405 716.400,209.284 714.426,208.629 713.771 C 207.985 713.128,206.800 713.002,206.800 713.576 M97.200 717.750 C 97.200 718.933,97.084 720.481,96.942 721.191 C 96.718 722.310,96.785 722.462,97.442 722.335 C 97.859 722.255,98.182 721.967,98.160 721.695 C 98.138 721.423,98.093 719.940,98.060 718.400 C 97.990 715.140,97.200 714.542,97.200 717.750 M209.600 716.557 C 209.600 716.864,209.870 717.218,210.200 717.345 C 210.577 717.489,210.800 718.101,210.800 718.987 C 210.800 719.976,210.980 720.400,211.400 720.400 C 212.198 720.400,212.221 717.363,211.429 716.571 C 210.698 715.841,209.600 715.832,209.600 716.557 M213.022 721.964 C 212.844 722.253,212.859 722.604,213.057 722.745 C 213.255 722.885,213.635 723.498,213.902 724.106 C 214.170 724.714,214.832 725.414,215.374 725.661 C 215.956 725.926,216.464 726.580,216.612 727.255 C 216.965 728.864,217.600 728.682,217.600 726.971 C 217.600 725.364,216.861 724.400,215.629 724.400 C 215.011 724.400,214.800 724.145,214.800 723.400 C 214.800 722.804,214.571 722.400,214.233 722.400 C 213.922 722.400,213.595 722.184,213.507 721.920 C 213.387 721.562,213.264 721.573,213.022 721.964 M100.000 728.944 C 100.000 730.369,99.904 731.786,99.786 732.093 C 99.558 732.686,101.273 734.800,101.981 734.800 C 102.211 734.800,102.379 734.935,102.353 735.100 C 101.969 737.531,102.487 741.698,103.196 741.883 C 103.633 741.997,103.892 742.250,103.772 742.445 C 103.651 742.640,103.869 742.800,104.256 742.800 C 104.804 742.800,104.853 742.693,104.480 742.320 C 104.216 742.056,103.992 741.021,103.983 740.020 C 103.951 736.710,103.376 734.798,102.047 733.584 C 100.878 732.517,100.800 732.269,100.800 729.646 C 100.800 728.107,100.620 726.736,100.400 726.600 C 100.149 726.445,100.000 727.318,100.000 728.944 M219.494 731.300 C 219.212 732.117,219.991 733.422,221.178 734.123 C 223.128 735.275,223.131 733.957,221.183 731.919 C 219.987 730.667,219.743 730.578,219.494 731.300 M225.803 736.795 C 225.663 737.022,225.823 737.089,226.179 736.953 C 226.521 736.822,226.800 736.914,226.800 737.157 C 226.800 737.401,227.025 737.598,227.300 737.596 C 227.575 737.594,228.282 738.179,228.871 738.896 C 230.064 740.349,237.966 741.303,237.515 739.940 C 237.389 739.562,236.392 739.365,234.179 739.282 C 231.155 739.168,230.970 739.106,229.758 737.782 C 228.488 736.395,226.376 735.869,225.803 736.795 M241.000 742.385 C 239.173 743.137,243.842 743.207,302.000 743.301 L 362.600 743.400 362.702 785.300 C 362.791 822.175,362.875 827.200,363.402 827.200 C 363.929 827.200,364.000 822.209,364.000 785.200 C 364.000 748.133,363.930 743.200,363.400 743.200 C 363.070 743.200,362.800 742.930,362.800 742.600 C 362.800 741.927,242.629 741.715,241.000 742.385 M104.884 743.415 C 104.601 743.737,104.548 744.000,104.767 744.000 C 104.988 744.000,105.219 745.382,105.283 747.096 C 105.438 751.189,106.802 752.120,106.798 748.129 C 106.794 744.124,105.995 742.156,104.884 743.415 M106.400 751.600 C 106.400 752.187,106.667 752.400,107.400 752.400 C 108.343 752.400,108.400 752.523,108.400 754.557 C 108.400 756.467,109.146 757.788,109.835 757.098 C 110.213 756.720,109.221 752.286,108.606 751.606 C 107.649 750.549,106.400 750.546,106.400 751.600 M111.402 759.596 C 111.030 760.199,111.272 765.603,111.660 765.363 C 111.847 765.247,112.000 765.403,112.000 765.709 C 112.000 766.015,112.450 766.506,113.000 766.800 C 113.873 767.267,114.245 768.271,114.060 769.663 C 114.041 769.807,114.334 769.877,114.712 769.817 C 115.752 769.652,115.442 766.816,114.285 765.900 C 113.798 765.515,113.175 765.013,112.900 764.784 C 112.595 764.530,112.400 763.363,112.400 761.784 C 112.400 759.417,112.024 758.591,111.402 759.596 M114.800 771.229 C 114.800 771.782,115.818 772.800,116.371 772.800 C 116.607 772.800,116.800 773.263,116.800 773.829 C 116.800 774.598,116.977 774.822,117.500 774.713 C 118.546 774.495,118.200 772.768,116.897 771.702 C 115.722 770.740,114.800 770.532,114.800 771.229 M117.600 776.732 C 117.600 777.135,118.050 777.706,118.600 778.000 C 119.228 778.336,119.600 778.882,119.600 779.468 C 119.600 780.133,119.829 780.400,120.400 780.400 C 121.622 780.400,121.363 779.362,119.700 777.596 C 118.035 775.826,117.600 775.647,117.600 776.732 M120.400 782.043 C 120.400 783.008,122.462 785.200,123.369 785.200 C 123.716 785.200,124.000 785.033,124.000 784.829 C 124.000 784.258,122.812 783.200,122.171 783.200 C 121.857 783.200,121.600 782.859,121.600 782.443 C 121.600 782.026,121.330 781.582,121.000 781.455 C 120.587 781.297,120.400 781.480,120.400 782.043 M123.456 785.878 C 122.340 786.993,125.214 791.556,127.636 792.514 C 128.040 792.674,127.995 792.746,127.476 792.768 C 127.078 792.786,126.867 792.985,127.007 793.211 C 127.146 793.436,127.562 793.571,127.930 793.511 C 128.458 793.423,128.627 793.777,128.727 795.182 C 128.848 796.877,132.013 800.800,133.260 800.800 C 133.447 800.800,133.600 800.988,133.600 801.218 C 133.600 801.448,134.050 802.086,134.600 802.636 L 135.600 803.636 135.600 802.406 C 135.600 801.583,135.368 801.103,134.900 800.959 C 133.499 800.526,132.997 800.101,132.869 799.238 C 132.790 798.700,132.206 798.104,131.369 797.705 C 130.123 797.110,130.000 796.897,130.000 795.326 C 130.000 794.377,129.841 793.600,129.647 793.600 C 129.452 793.600,129.199 793.240,129.084 792.800 C 128.964 792.342,128.538 792.000,128.087 792.000 C 127.528 792.000,127.229 791.643,127.053 790.766 C 126.875 789.874,126.474 789.407,125.603 789.079 C 124.609 788.703,124.400 788.401,124.400 787.336 C 124.400 786.065,123.955 785.378,123.456 785.878 M136.000 803.739 C 136.000 804.209,137.604 805.600,138.147 805.600 C 138.972 805.600,138.982 805.039,138.171 804.229 C 137.635 803.692,136.000 803.323,136.000 803.739 M139.200 806.829 C 139.200 807.382,140.218 808.400,140.771 808.400 C 141.007 808.400,141.200 808.535,141.200 808.700 C 141.201 809.211,143.068 811.200,143.547 811.200 C 143.796 811.200,144.000 811.393,144.000 811.629 C 144.000 812.392,145.117 813.200,146.171 813.200 C 147.570 813.200,147.474 812.524,146.030 812.207 C 145.209 812.026,144.738 811.598,144.449 810.769 C 144.151 809.912,143.702 809.520,142.819 809.344 C 142.001 809.180,141.600 808.863,141.600 808.379 C 141.600 807.982,141.317 807.374,140.971 807.029 C 140.253 806.310,139.200 806.191,139.200 806.829 M149.867 815.067 C 149.381 815.553,149.590 816.000,150.304 816.000 C 150.691 816.000,151.546 816.626,152.204 817.391 C 152.862 818.157,153.715 818.787,154.100 818.791 C 154.958 818.802,155.023 818.171,154.197 817.854 C 153.865 817.727,153.386 817.167,153.132 816.611 C 152.879 816.055,152.340 815.600,151.936 815.600 C 151.531 815.600,151.200 815.420,151.200 815.200 C 151.200 814.750,150.276 814.658,149.867 815.067 M156.083 819.100 C 156.170 819.527,156.571 819.788,157.112 819.768 C 157.601 819.751,158.000 819.899,158.000 820.097 C 158.000 820.738,159.183 821.662,159.833 821.529 C 160.860 821.319,158.142 818.400,156.920 818.400 C 156.201 818.400,155.979 818.585,156.083 819.100 M161.675 821.895 C 161.749 822.278,162.165 822.659,162.599 822.743 C 163.033 822.827,163.682 823.234,164.041 823.647 C 165.601 825.446,166.414 824.489,164.953 822.573 C 163.769 821.022,161.413 820.535,161.675 821.895 M169.274 824.700 C 169.447 825.614,172.000 825.950,172.000 825.059 C 172.000 824.733,172.225 824.376,172.500 824.265 C 172.775 824.154,172.132 824.049,171.071 824.032 C 169.440 824.005,169.162 824.108,169.274 824.700 M176.885 827.317 C 177.054 828.369,189.448 828.832,190.865 827.839 C 191.367 827.488,191.693 827.179,191.589 827.153 C 189.238 826.572,176.787 826.710,176.885 827.317 "
              stroke="none" fill="#b5dc6c" fill-rule="evenodd"></path>
    </g>
</svg>
